ffmpeg version 3.4.8-0ubuntu0.2 Copyright (c) 2000-2020 the FFmpeg developers
  built with gcc 7 (Ubuntu 7.5.0-3ubuntu1~18.04)
  configuration: --prefix=/usr --extra-version=0ubuntu0.2 --toolchain=hardened --libdir=/usr/lib/x86_64-linux-gnu --incdir=/usr/include/x86_64-linux-gnu --enable-gpl --disable-stripping --enable-avresample --enable-avisynth --enable-gnutls --enable-ladspa --enable-libass --enable-libbluray --enable-libbs2b --enable-libcaca --enable-libcdio --enable-libflite --enable-libfontconfig --enable-libfreetype --enable-libfribidi --enable-libgme --enable-libgsm --enable-libmp3lame --enable-libmysofa --enable-libopenjpeg --enable-libopenmpt --enable-libopus --enable-libpulse --enable-librubberband --enable-librsvg --enable-libshine --enable-libsnappy --enable-libsoxr --enable-libspeex --enable-libssh --enable-libtheora --enable-libtwolame --enable-libvorbis --enable-libvpx --enable-libwavpack --enable-libwebp --enable-libx265 --enable-libxml2 --enable-libxvid --enable-libzmq --enable-libzvbi --enable-omx --enable-openal --enable-opengl --enable-sdl2 --enable-libdc1394 --enable-libdrm --enable-libiec61883 --enable-chromaprint --enable-frei0r --enable-libopencv --enable-libx264 --enable-shared
  libavutil      55. 78.100 / 55. 78.100
  libavcodec     57.107.100 / 57.107.100
  libavformat    57. 83.100 / 57. 83.100
  libavdevice    57. 10.100 / 57. 10.100
  libavfilter     6.107.100 /  6.107.100
  libavresample   3.  7.  0 /  3.  7.  0
  libswscale      4.  8.100 /  4.  8.100
  libswresample   2.  9.100 /  2.  9.100
  libpostproc    54.  7.100 / 54.  7.100
[rawvideo @ 0x5571b50aba20] Estimating duration from bitrate, this may be inaccurate
Input #0, rawvideo, from '../../SVC-Encoder-20220109T061506Z-001/SVC-Encoder/Dataset/RollerCoaster/ERP_8x8/tile_yuv/Tile_47_480x240.yuv':
  Duration: 00:00:10.00, start: 0.000000, bitrate: 41472 kb/s
    Stream #0:0: Video: rawvideo (I420 / 0x30323449), yuv420p, 480x240, 41472 kb/s, 30 tbr, 30 tbn, 30 tbc
Stream mapping:
  Stream #0:0 -> #0:0 (rawvideo (native) -> h264 (libx264))
Press [q] to stop, [?] for help
[libx264 @ 0x5571b50b8c60] using cpu capabilities: MMX2 SSE2Fast LZCNT SSSE3 SSE4.2 AVX
[libx264 @ 0x5571b50b8c60] profile High, level 2.1
Output #0, rawvideo, to 'RollerCoaster_Tile_47_480x240_x264_QP_20.h264':
  Metadata:
    encoder         : Lavf57.83.100
    Stream #0:0: Video: h264 (libx264), yuv420p, 480x240, q=-1--1, 30 fps, 30 tbn, 30 tbc
    Metadata:
      encoder         : Lavc57.107.100 libx264
    Side data:
      cpb: bitrate max/min/avg: 0/0/0 buffer size: 0 vbv_delay: -1
frame=  118 fps=0.0 q=26.0 PSNR=Y:nan U:nan V:nan *:nan size=     202kB time=00:00:02.50 bitrate= 661.7kbits/s speed=4.97x    frame=  212 fps=211 q=26.0 PSNR=Y:nan U:nan V:nan *:nan size=     256kB time=00:00:05.63 bitrate= 372.3kbits/s speed=5.61x    frame=  300 fps=186 q=26.0 LPSNR=Y:inf U:inf V:inf *:inf size=     726kB time=00:00:09.93 bitrate= 598.5kbits/s speed=6.15x    
video:726kB audio:0kB subtitle:0kB other streams:0kB global headers:0kB muxing overhead: 0.000000%
[libx264 @ 0x5571b50b8c60] frame I:2     Avg QP:17.71  size: 23416  PSNR Mean Y:47.58 U:50.41 V:50.97 Avg:48.39 Global:48.35
[libx264 @ 0x5571b50b8c60] frame P:76    Avg QP:19.35  size:  6237  PSNR Mean Y:44.82 U:49.79 V:50.20 Avg:45.97 Global:45.93
[libx264 @ 0x5571b50b8c60] frame B:222   Avg QP:25.45  size:  1002  PSNR Mean Y:43.84 U:49.59 V:49.91 Avg:45.07 Global:45.01
[libx264 @ 0x5571b50b8c60] consecutive B-frames:  0.7%  1.3%  2.0% 96.0%
[libx264 @ 0x5571b50b8c60] mb I  I16..4:  6.9% 59.1% 34.0%
[libx264 @ 0x5571b50b8c60] mb P  I16..4:  0.5%  1.5%  0.8%  P16..4: 38.9% 29.4% 18.0%  0.0%  0.0%    skip:10.9%
[libx264 @ 0x5571b50b8c60] mb B  I16..4:  0.0%  0.1%  0.1%  B16..8: 46.7% 11.8%  2.7%  direct: 0.9%  skip:37.5%  L0:43.0% L1:45.8% BI:11.2%
[libx264 @ 0x5571b50b8c60] 8x8 transform intra:54.2% inter:65.6%
[libx264 @ 0x5571b50b8c60] coded y,uvDC,uvAC intra: 80.5% 90.3% 55.6% inter: 19.4% 14.7% 0.3%
[libx264 @ 0x5571b50b8c60] i16 v,h,dc,p: 24% 33% 26% 17%
[libx264 @ 0x5571b50b8c60] i8 v,h,dc,ddl,ddr,vr,hd,vl,hu: 11% 22% 13%  7%  6%  7% 10%  8% 16%
[libx264 @ 0x5571b50b8c60] i4 v,h,dc,ddl,ddr,vr,hd,vl,hu: 15% 23% 13%  6%  7%  7% 12%  8%  9%
[libx264 @ 0x5571b50b8c60] i8c dc,h,v,p: 40% 23% 21% 16%
[libx264 @ 0x5571b50b8c60] Weighted P-Frames: Y:0.0% UV:0.0%
[libx264 @ 0x5571b50b8c60] ref P L0: 53.6% 17.1% 22.7%  6.6%
[libx264 @ 0x5571b50b8c60] ref B L0: 83.0% 13.5%  3.5%
[libx264 @ 0x5571b50b8c60] ref B L1: 92.6%  7.4%
[libx264 @ 0x5571b50b8c60] PSNR Mean Y:44.113 U:49.645 V:49.993 Avg:45.319 Global:45.241 kb/s:594.54
